<?xml version="1.0" encoding="utf-8"?>
<!-- Generator: Adobe Illustrator 21.1.0, SVG Export Plug-In . SVG Version: 6.00 Build 0)  -->
<svg version="1.1" id="Layer_1" xmlns="http://www.w3.org/2000/svg" xmlns:xlink="http://www.w3.org/1999/xlink" x="0px" y="0px"
	 viewBox="0 0 16 16" style="enable-background:new 0 0 16 16;" xml:space="preserve">
<title>file-text</title>
<path d="M14.4,0H1.6C0.7,0,0,0.7,0,1.5v13C0,15.3,0.7,16,1.6,16h12.8c0.9,0,1.6-0.7,1.6-1.5v-13C16,0.7,15.3,0,14.4,0z M13.9,14H2.1
	V2h11.7V14z M4.3,7h7.5v1H4.3V7z M4.3,9h7.5v1H4.3V9z M4.3,11h7.5v1H4.3V11z M4.3,5h7.5v1H4.3V5z"/>
</svg>
